<svg xmlns="http://www.w3.org/2000/svg" xmlns:xlink="http://www.w3.org/1999/xlink"><symbol id="icon-basket" viewBox="264.205 370.961 20.294 18.849">
  <path d="M283.75 378.19h-3.151l-3.407-6.814a.75.75 0 10-1.341.671l3.071 6.143h-9.138l3.072-6.143a.75.75 0 00-1.341-.671l-3.407 6.814h-3.151a.75.75 0 000 1.5h.157l.855 2.991a.737.737 0 00-.316.595c0 .396.309.71.697.739l1.656 5.795h12.697l1.656-5.795a.745.745 0 00.698-.739.738.738 0 00-.316-.596l.854-2.991h.157a.75.75 0 10-.002-1.499zm-4.181 10.121h-10.433l-1.224-4.284h12.881l-1.224 4.284zm1.653-5.785h-13.739l-.81-2.836h15.359l-.81 2.836z"/>
</symbol><symbol id="icon-fb" viewBox="56.5 50 15 27.7">
  <path d="M68.2 55.2c1 0 2 0 2.7-.3.4-.8.5-1.9.6-3-.2 0 0-.3-.2-.4 0-.2-.3-.2-.3-.4l-.8-.6-2.1-.5c-.9 0-2-.1-2.6.1-2.6 0-4 1.1-5.3 2.4v.2c-.6 1.6-.2 3.6-.3 5.6l.2 1.4c-1 .3-2.2.4-3.4.5-.3.3-.1 1-.2 1.7l.4 1.6.9.5c.6.3 1.5 0 2.3.2-.1 2 .3 3.9 0 5.6 0 .4.3.4.2.8 0 1 0 2 .3 2.7-.3.5-.5 1-.5 1.8.2 0 .2.2.1.3 0 .5.7.2.6.7.1.5-.5.2-.5.5v1c.6.2 1.5 0 2.3.1 1-.4 2.2-.5 2.8-1.2.5.2 1 0 1.2-.2 0-.3.3-.3.2-.7v-3.8c-.3-2.3-.1-5-.4-7.1 1-.2 2-.1 2.6-.4.4-.5.4-1.3.5-2 .2-.2.2-.5.2-1 .2-.1.1-.7.1-1-.1-.6-.1-1.3-.8-1.4-.9-.3-2 .6-3 .3 0-1.2-.3-2.4 0-3.4l2.2-.6zM64.4 60l.4.7h.2c1.2.1 2.2 0 3-.2 0 1-.2 1.7-.4 2.5-.7 0-1.5.3-2 .2-.3.1-.4.5-.6.7 0 .4.1.5 0 .8-.2 0 0 .6-.2.8v1.4c0 .3-.2.3-.1.5V71v3.5c.1.3 0 .8.2 1 0 .3-.4-.1-.8 0-.6.1-1 .4-1.6.4.1-.3.3-.6.3-1 0-.5-.3-.4-.5-.6.2-.6.6-1 .7-1.8.2-.5.7-1.3.3-1.8-.5 0-.5.3-.8.4v.2l-.2.2c0 .2-.1.1 0 0l.1-.2.1-.2v-.3c.4-.5.7-1.2.8-2 .2-.2.3-.6.4-1 .2-.2.4-.8.2-1.1-.6 0-.8.3-1 .7-.3-.2.2-.5.1-.7l.3-.8c.2-.5.6-1.3 0-1.6-.4 0-.6.2-.7.5-.2.2-.4.3-.5.7-.4-.1-.1-.8-.2-1.1V63c-.6-.8-2-.1-3.2-.3-.1-.3-.2-1-.1-1.2 1-.1 2.5.2 3.2-.2v-.2c.2-.7-.2-1-.4-1.4.2-.8 0-2 0-3l.6-.6c.1-1 .7-1.5.7-2.5-.3 0-.6 0-.6.2-.3-.1-.4.5-.5.2-.1-.5.2-.6.3-1l1.8-1.2c1.8-.2 4.7-.4 6.1.2 0 .6-.3.9-.2 1.5h-1.5c-1.1.2-2 .7-3 1-.3 0-.3.3-.5.4 0 .4-.3.6-.3 1v4z"/>
</symbol><symbol id="icon-feature-ball" viewBox="0 0 34.373 34.373">
  <g>
    <path d="M0.286,14.069c-0.382,2.073-0.384,4.211,0.008,6.301l4.121-3.21L0.286,14.069z"/>
    <path d="M24.403,1.585C19.62-0.623,13.959-0.559,9.149,1.992l7.513,5.625L24.403,1.585z"/>
    <path d="M33.901,13.175l-4.811,3.748l4.936,3.695C34.522,18.173,34.489,15.63,33.901,13.175z"/>
    <path d="M9.209,32.414c4.844,2.534,10.724,2.65,15.73,0.113l-8.096-6.062L9.209,32.414z"/>
    <path d="M7.914,14.433L1.681,9.767c-0.32,0.669-0.595,1.356-0.825,2.056l5.308,3.974L7.914,14.433z"/>
    <path d="M18.593,25.102l8.336,6.242c0.277-0.191,0.551-0.391,0.82-0.601c0.318-0.248,0.625-0.505,0.92-0.771l-8.326-6.234 L18.593,25.102z"/>
    <path d="M11.413,11.707L4.002,6.158C3.54,6.709,3.117,7.285,2.733,7.881l6.931,5.189L11.413,11.707z"/>
    <path d="M22.093,22.375l8.092,6.059c0.471-0.544,0.904-1.112,1.297-1.701l-7.639-5.721L22.093,22.375z"/>
    <path d="M14.913,8.98L7.196,3.203C7.003,3.341,6.812,3.482,6.623,3.629C6.227,3.938,5.849,4.261,5.487,4.597l7.676,5.747 L14.913,8.98z"/>
    <path d="M25.592,19.649l6.972,5.221c0.33-0.662,0.615-1.341,0.855-2.033l-6.077-4.55L25.592,19.649z"/>
    <path d="M26.448,2.706L0.88,22.626c0.233,0.698,0.513,1.386,0.839,2.059l26.52-20.663C27.667,3.541,27.068,3.102,26.448,2.706z"/>
    <path d="M30.743,6.624c-0.301-0.386-0.614-0.754-0.939-1.106L2.786,26.567c0.262,0.402,0.542,0.797,0.843,1.183 c0.142,0.183,0.288,0.359,0.436,0.534L31.155,7.176C31.021,6.99,30.886,6.806,30.743,6.624z"/>
    <path d="M32.298,8.999L5.552,29.838c0.544,0.501,1.114,0.962,1.708,1.382l25.962-20.228C32.959,10.314,32.651,9.648,32.298,8.999z"/>
  </g>
</symbol><symbol id="icon-feature-flower" viewBox="8.014 4.35 31.972 37.301">
  <path fill="#63d1bb" d="M24,41.65c8.827,0,15.986-7.159,15.986-15.986C31.158,25.664,24,32.822,24,41.65z M12.641,20.78 c0,2.451,1.989,4.441,4.44,4.441c0.932,0,1.803-0.294,2.513-0.782l-0.036,0.337c0,2.451,1.99,4.441,4.441,4.441 s4.44-1.99,4.44-4.441l-0.036-0.337c0.719,0.497,1.582,0.782,2.514,0.782c2.451,0,4.44-1.99,4.44-4.441 c0-1.768-1.038-3.286-2.54-3.997c1.492-0.71,2.54-2.229,2.54-3.997c0-2.451-1.989-4.44-4.44-4.44c-0.932,0-1.803,0.293-2.514,0.781 L28.44,8.79c0-2.451-1.989-4.44-4.44-4.44s-4.441,1.99-4.441,4.44l0.036,0.337c-0.719-0.497-1.581-0.781-2.513-0.781 c-2.451,0-4.44,1.99-4.44,4.44c0,1.768,1.039,3.286,2.54,3.997C13.68,17.494,12.641,19.012,12.641,20.78z M24,12.343 c2.451,0,4.44,1.989,4.44,4.44c0,2.451-1.989,4.44-4.44,4.44s-4.441-1.99-4.441-4.44C19.559,14.332,21.549,12.343,24,12.343z  M8.014,25.664c0,8.827,7.158,15.986,15.986,15.986C24,32.822,16.842,25.664,8.014,25.664z"/>
</symbol><symbol id="icon-feature-gift" viewBox="239.665 239.757 32.666 32.486">
  <path fill="#63d1bb" d="M242.56,272.243h12.504v-13.91H242.56V272.243z M270.742,248.623h-7.335 c0.521-0.267,0.984-0.549,1.396-0.845c1.588-1.133,2.424-2.57,2.42-3.999c0.002-1.169-0.556-2.202-1.359-2.901 c-0.805-0.704-1.869-1.119-3.016-1.121c-1.22-0.001-2.352,0.421-3.32,1.069c-1.459,0.979-2.606,2.451-3.424,4.067 c-0.039,0.079-0.078,0.157-0.115,0.236c-0.299-0.623-0.647-1.226-1.041-1.792c-0.691-0.985-1.523-1.86-2.497-2.511 c-0.97-0.646-2.103-1.069-3.322-1.069c-1.213,0.004-2.323,0.514-3.155,1.295c-0.828,0.783-1.41,1.885-1.412,3.135 c-0.002,0.73,0.211,1.494,0.649,2.188c0.552,0.872,1.424,1.628,2.633,2.248h-6.588c-0.878,0-1.591,0.712-1.591,1.59v5.897h15.396 v-7.488h1.873v7.488h15.396v-5.897C272.333,249.334,271.621,248.623,270.742,248.623 M248.38,246.284 c-0.622-0.391-1-0.785-1.22-1.135c-0.22-0.354-0.294-0.662-0.296-0.963c-0.004-0.504,0.248-1.042,0.691-1.461 c0.437-0.415,1.028-0.667,1.562-0.667h0.013c0.685,0,1.366,0.231,2.046,0.683c1.018,0.671,1.975,1.85,2.645,3.187 c0.342,0.676,0.609,1.39,0.789,2.087C251.528,247.694,249.532,247.013,248.38,246.284 M258.917,244.657 c0.557-0.797,1.21-1.466,1.887-1.916c0.68-0.451,1.362-0.683,2.047-0.683h0.006c0.574,0,1.117,0.22,1.494,0.55 c0.377,0.336,0.571,0.739,0.573,1.171c-0.004,0.512-0.272,1.259-1.467,2.132c-1.138,0.825-3.101,1.673-6.127,2.265 C257.62,246.974,258.177,245.704,258.917,244.657 M256.937,272.243h12.506v-13.91h-12.506V272.243z"/>
</symbol><symbol id="icon-feature-heart" viewBox="47.475 50.071 33.05 27.857">
  <path fill="#63d1bb" d="M80.525,58.808c0-4.825-3.912-8.736-8.736-8.736c-3.405,0-6.348,1.951-7.789,4.793 c-1.441-2.842-4.384-4.793-7.789-4.793c-4.825,0-8.736,3.911-8.736,8.736c0,9.127,14.657,19.121,16.525,19.121 C65.869,77.929,80.525,67.979,80.525,58.808z"/>
</symbol><symbol id="icon-feature-money" viewBox="46.212 56.834 46.575 27.332">
  <path d="M88.882,56.834H50.116c-2.156,0-3.904,1.749-3.904,3.905v19.521c0,2.156,1.748,3.905,3.904,3.905h38.766 c2.156,0,3.905-1.749,3.905-3.905V60.739C92.787,58.583,91.038,56.834,88.882,56.834z M49.235,81.784V59.551h40.202v22.233H49.235z"/>
  <path d="M53.14,77.88h32.395V63.456H53.14V77.88z M69.5,65.354c2.936,0,5.315,2.38,5.315,5.314c0,2.936-2.379,5.314-5.315,5.314 s-5.314-2.379-5.314-5.314C64.185,67.733,66.564,65.354,69.5,65.354z"/>
</symbol><symbol id="icon-feature-rocket" viewBox="612.532 500.386 54.156 23.183">
  <g>
    <path d="M652.844,506.098c-3.647-0.971-7.839-1.667-12.359-1.666c-2.891,0.001-5.457,0.243-7.71,0.623l-6.784-4.668l-13.456,0.005 l5.811,6.184h8.447c-4.58,1.598-6.759,3.515-6.759,3.515l0.002,3.777c0,0,2.313,1.912,6.931,3.518l-8.623-0.005l-5.811,6.188 l13.455,0.002l6.816-4.692c2.261,0.398,4.822,0.647,7.681,0.648c4.522-0.001,8.712-0.697,12.36-1.667 c-1.176-1.775-1.915-3.743-1.918-5.877C650.93,509.842,651.665,507.871,652.844,506.098z"/>
    <path d="M656.267,507.132c-1.284,1.605-1.969,3.25-1.965,4.84c-0.007,1.597,0.677,3.238,1.968,4.847 c6.399-2.162,10.419-4.841,10.419-4.841S662.67,509.298,656.267,507.132z"/>
  </g>
</symbol><symbol id="icon-flag" viewBox="-11.34 -28.346 46.68 81.691">
  <g id="miu">
    <g id="Artboard-1" transform="translate(-755.000000, -443.000000)">
      <g id="slice" transform="translate(215.000000, 119.000000)">
      </g>
      <g id="editor-flag-triangle-notification-glyph">
        <path fill="#63D1BB" d="M751.439,418.545v38.9l38.9-19.451L751.439,418.545z M743.66,496.346v-81.691h3.805v81.691H743.66z"/>
      </g>
    </g>
  </g>
  <g>
    <rect x="-11.34" y="-28.346" fill="#231F20" width="3.805" height="81.691"/>
  </g>
</symbol><symbol id="icon-html_academy">
  <path d="M13.62.017L13.472 0 0 1.412v24.661l13.473 8.017 13.43-7.99.042-.025V1.412L13.62.017zm11.399 12.11L13.495 5.334l-.001-.104-.087.05-.088-.056v.109L1.925 12.118V3.147l11.548-1.212L25.02 3.147v8.98zm-11.614-5.34L24.923 13.5l-4.479 2.64-7.093-4.221-.014 1.415 5.904 3.513-.86.507-5.03-2.992-.014 1.415 3.827 2.275-.782.523-3.031-1.787-.014 1.413 1.853 1.091-1.8 1.081-11.356-6.751 11.371-6.835zm-11.48 8.34l11.411 6.791.016 1.044-7.942-4.728-.015 1.416 7.979 4.795.018 1.076-7.973-4.74-.013 1.414 8.021 4.822.046.025 8.143-4.872-.011-5.177 3.415-2.036v10.021L13.472 31.85 1.925 24.979v-9.852z"/>
</symbol><symbol id="icon-insta" viewBox="53.1 53.2 21.8 21.3">
  <path d="M74.9 65.3c0-2.4-.4-4.8-.3-7.1l-.2-2.3-.1-1c-.3-.2-.2-.7-.5-.9-.4-.2-1.2 0-1.7-.2l-2-.1-6-.1c-2 0-3.9-.2-5.6-.4h-2.2c-.1 0-.1.1-.2 0l-1.6.4-.7.3c-.2.2-.5.1-.6.4-.2.2.2.4 0 .6v.9c.1.1 0 .6 0 .8v1c0 1.3.2 2.4.1 3.7.5 2.8.4 6.6.1 9.4l.5 1.8c.2.5.3 1.1.6 1.5.5.2 1.3.2 2 .2.3.1.6.3 1 .3 3-.2 5.6-.1 8.5-.2 2.7.2 5.8.2 8.3-.2.2-.2.1-.6.2-.8 0-.4.2-.4.2-.7.2-2.4.2-4.8.2-7.3zm-13-6.2c.8-.1 1.5-.3 2.4-.3.7 0 1.3.3 2 .5 0 .1-.3.5 0 .6v.1l.2.1c.5 0 .8.2 1 .4.5 0 .6.5 1.2.3v.8c.3 1.2.4 2.8.3 4.3-.2.1-.3.4-.3.6-.4.4-.5.8-.9 1.1a1 1 0 01-.4.5c-.2.3-.2.5-.5.6-.3.1-.6 0-.8-.1-.5.2-1 .3-1.2.6-.9 0-1.7-.2-2.5-.3a2 2 0 00-.8-.3 2 2 0 00-.8-.5c-.1 0-.4 0-.5-.2-.2 0-.2-.2-.5-.2 0-.4-.4-.6-.5-1l-.4-1.3c0-1.4 0-2.7.3-3.8l1.2-1.7c.2 0 .3 0 .4-.3h.6c.3 0 .3-.3.5-.5zm-1.7-2.7v-1c0-.4.2-.4.3-.6h-.2c.1-.2.7-.2.8 0 .2.4-.3.4-.5.6 0 .2.3 0 .5 0v2.3h-.5c0 .2.2.2.5.2v.6c-.2.2-.7 0-1 0-.1-.5.2-1.3.1-2.1zm-.7-1.6h.2c.2.3 0 .7 0 1-.3-.2-.1-.7-.2-1zm.2 1.8l-.2-.4c.2 0 .2.2.2.4zm0 1.4v-.2.2zm-.2.2c.2 0 .1.2.3.2 0 .2-.3.2-.4.1l.1-.3zM57.2 57v-.2c-.2-.8 0-1.5 0-2 .2-.2.7 0 1 0v1l-.3.1c0 .3.3.2.4.3 0 .9-.1 1.8.1 2.5H57c0-.6 0-1.4.5-1.6l-.3-.1zm-.5 0c-.2 0-.3-.5-.1-.6.3 0 .2.5 0 .6zm-.2 1v-.7c.3 0 .3.8 0 .7zm.2-2c-.2 0-.2-.3-.1-.5.2 0 .3.3.1.4zm0-1.2v.3c-.2 0-.1-.2-.3-.2l.3-.1zm-.2 3.7c.2 0 .1.4 0 .2v-.2zm-.7-3.7c0 .2-.4.3-.4 0h.4zm-1 0c0 .3-.3.2-.3.4-.3-.1 0-.4.3-.3zm-.4.8l.7-.6v-.2h.3c0 .4-.3.3-.3.5l-.1.2v1c-.2 0-.2.3-.5.3 0-.5-.2-.7-.1-1.2zm0 3.3v-1.6l.7-.5c.3.4.1 1.3.4 1.9-.3.1-.7 0-1 .2zm18.3 11l-.4 2.9-8.9.1c-.2 0-.3 0-.2-.2-.3 0-.3.2-.5.2.2-.3.4-.9.1-1.3-.8 0-.8.9-1.1 1.3-.7 0-1.2.2-1.9.1.2-.7.8-1 1-1.7-.4-.6-1 .1-1.3.4l-.7 1.3h-1l.8-1.4c.1-.5.6-.7.6-1.3-.1-.3-.4 0-.6 0l-.4.5-.7 1.1c-.2.3-.3 0-.5.3-.4.2-.6.7-1 1-.2-.1 0-.4.1-.4l.1-.6c0-.4.2-.7.4-1 .1-.7.5-1.1.7-1.8-.6 0-.7.6-1 1-.2.4-.6.7-.7 1.2-.2 0 0-.5 0-.8 0-.6.2-1.1.3-1.7l.2-.9c.2-.2 0-.6 0-.7-.3 0-.4.1-.5.3-.2 0-.2.5-.3.3 0-2.6-.5-4.8-.5-7.5l-.2-.7 4.8.3-.3.4c-.2 0-.2.1-.4.3-.6 1.6-1 4-.6 6.1.2.6.6 1 1 1.5.9.4 1.6 1.1 2.5 1.6 1.7.4 3.8.4 5.5 0l.7-.4c1.4-1.2 2.8-2.4 3-4.8v-1.4C70.6 62 70 60.6 69 60c.4-.2 1.1 0 1.7 0H72.8c.2.2.1.6.3.8l-.2 5.1.2 1.4c0 1-.2 2-.4 2.8zm.4-11l-2-.5c.1-.3.9 0 1-.2.4-.2.3-1 .4-1.5v-1c-.4-1-1.8-.5-2.9-.5a6 6 0 00-.3 2.6c.2.5 1 .3 1.6.5-.2.3-.7 0-1 0h-7.5l-.1-3.6h3c-.3.4-.8.5-1.2.9-.4.2-.9.5-1.1.9.2.1.5-.3.7-.4.4 0 .5-.4.9-.5.4-.4 1-.6 1.6-.9h1l3.8.2c.6.1 1.5 0 2 .3l.3.9-.2 2.7zM67.2 55c.1 0 0-.1 0 0zm0 0c-.5.1-1 .3-1.4.7.5-.2 1.1-.3 1.4-.7zm1 .6c.2 0 0-.1 0 0zm-1.7 1c.8-.3 1.2-.7 1.8-1-.5 0-.6.3-1 .4-.2.2-.6.2-.8.5zm-.7-1c0 .1 0 .2 0 0zm-.6.7s0-.1 0 0zm-.1 0zm0 .1zm-1 .6c.4-.1.7-.3 1-.6a2 2 0 00-1 .6zm2.4 1c.5 0 .7-.4 1.2-.5.3-.3.8-.4 1-.8-.6 0-.8.4-1.3.6-.2.3-.7.4-1 .7zm-2.3-1c-.3 0 0 .3 0 0zm-.6.4h.1s-.1 0 0 0zm2.9.6c-.2 0 0 .1 0 0zM65.3 60c-.2-.2-.7-.2-1-.3-.7 0-1.2 0-1.7.2l-1 .5-.7.5c-.2.2-.3.5-.7.6 0 .2-.1.3-.3.4 0 0 0 .3-.2.3v.4c0 1.5.2 2.9.6 4.1.3.7 1 .9 1.4 1.3.6.3 1.4.5 2.2.5h.9a5 5 0 002.8-1.5l.4-.7c-.2-.6.3-1 .5-1.5 0-1.4-.2-2.5-.6-3.5-.3-.5-1-.7-1.4-1l-.1-.2c-.3-.1-.8-.2-1 0zM62 64.3l-.2-.4c.3 0 .2.2.2.4zm0 .3c.1-.1.2 0 .2 0 0 .2-.1 0-.1 0zm.5-2c0-.2.1-.1.1 0zm1.7-2.2c-.2.3 0 .6 0 .8-.2 0-.5-.8 0-.8zm.4 4v-.1c.1 0 0 0 0 0zm.7 2.8h.2c0 .1-.2.1-.2 0zm2.2-2.5c-.2-.1-.1.2-.3.1 0-.2 0-.3.2-.4.1 0 .2 0 .1.3zm-1.1-3.8l.6.3c0 .3.3.4.4.6 0 .7.2 1.5.1 2.3l-.6.4c-.8 0-1.4-.2-2-.5l-.5-.7v-1l.5-.7c.2-.1.5-.2.4-.6v-.2l.3.2c.4 0 .5-.2.8-.1z"/>
  </symbol><symbol id="icon-interior" viewBox="-259.4 -19.68 40.22 62.41">
  <path d="M-244.23 18.28c-.28.97-.24 2.2.03 3.64.5 2.64 1.69 6.04 2.36 9.67h5.06c.7-3.64 1.95-7.05 2.47-9.68.29-1.45.33-2.66.04-3.62-.27-.9-.89-1.62-2.02-2.3h-6c-1.07.68-1.67 1.39-1.94 2.3zM-232.4 38.28h-13.8c-1.29 0-2.3.97-2.3 2.23v2.23H-230.1V40.5c0-1.26-1-2.23-2.3-2.23zM-225.26-17.45H-237a2.25 2.25 0 00-2.3-2.23c-1.29 0-2.3.99-2.3 2.23h-11.74l-6.07 25.52c.79-.46 1.58-1 2.63-1 1.36 0 2.24.83 2.92 1.38.68.56 1.16.85 1.45.85.3 0 .77-.28 1.45-.83.68-.55 1.56-1.36 2.92-1.36 1.34 0 2.23.8 2.91 1.35.69.55 1.17.84 1.46.84.14 0 .33-.07.58-.21.24-.14.53-.35.87-.63.5-.4 1.14-.96 1.99-1.22.28-.08.59-.13.93-.13 1.34 0 2.24.8 2.92 1.35.68.55 1.16.84 1.45.84.29 0 .76-.3 1.44-.85.69-.55 1.57-1.36 2.93-1.36 1.35 0 2.24.81 2.92 1.37.34.27.63.49.87.63s.43.21.57.21c.3 0 .77-.3 1.45-.85.68-.56 1.56-1.39 2.93-1.39 1.04 0 1.83.54 2.63 1l-6.08-25.5zM-235.88 33.82h-6.87a1.1 1.1 0 00-1.15 1.11c0 .64.5 1.12 1.15 1.12h6.9a1.1 1.1 0 001.15-1.11c0-.64-.49-1.12-1.15-1.12h-.03zM-239.3 9.34c-.14 0-.33.07-.57.2-.16.1-.37.27-.57.42v3.73h2.3V9.96c-.51-.38-.91-.62-1.16-.62z"/>
</symbol><symbol id="icon-left-arrow" viewBox="0 0 50 26.003">
  <polygon points="50,11.002 7.659,11.002 15.833,2.828 13.005,0 0,12.998 0.003,13.001 0,13.005 13.005,26.003 15.833,23.175 7.661,15.002 50,15.002 "/>
</symbol><symbol id="icon-logo_footer" viewBox="0 0 101.61 34.06">
  <path d="M19.14 21.5c-.09-2.69-.51-5.35-.48-8.04.03-2.17.39-4.41-.36-6.5l.14-.7c.2-1.05-3.27-.5-3.81.46-.35.28-.52.61-.38.96l.1.26a78.3 78.3 0 01-2.62 9.4c-.4 1.2-.88 2.36-1.3 3.54-.58-1.1-1.16-2.2-1.64-3.38-1.37-3.43-2.61-6.9-4.28-10.2.19-1.53-3.2-1.37-3.88.03-.8 1.7-.7 3.4-.44 5.21.3 2.05.36 4.05.38 6.12.05 3.97.36 7.94.42 11.91-.36.4-.46.89-.1 1.38.17.22.37.38.58.55.9.72 3.5.1 3.5-1.27-.02-4.13-.32-8.24-.43-12.36l-.02-1.21.17.43c.64 1.6 1.31 3.17 2.19 4.66.86 1.48 1.3 3.06 1.8 4.67-.19.22-.3.47-.23.71-.04.18.07.3.25.36.64.55 1.84.28 2.5 0 .3-.13.57-.27.83-.43.35-.21.89-.68.73-1.16l-.09-.28c.47-1.27.71-2.59.97-3.93.27-1.42.78-2.78 1.3-4.13l.15 1.86c.2 2.55.03 5.07 0 7.62 0 .85.06 1.63.23 2.46.06.35.36 1.81.28 1.89-.61.56-.44 1.26.38 1.44.92.2 2.08-.1 2.77-.75 1.2-1.1.63-2.84.36-4.24-.45-2.34.1-4.96.03-7.34zM27.5 22.17c-.08-1.99-.77-3.86-.78-5.87 0-2.3.19-4.6-.15-6.89-.1-.72-4.06.1-3.92 1.05.31 2.11.2 4.23.16 6.36-.04 2.04.47 3.9.73 5.9.27 2.05-.08 4.16.15 6.21.11.97.75 2.75.09 3.58-.42.54 1.47.35 1.55.33.77-.14 1.8-.4 2.3-1.04.66-.83.2-2.42.06-3.36-.32-2.05-.11-4.2-.2-6.27zM43.83 18.85c-2.06-2.78-5.9-.78-8.56-1.54-1.38-.4-1.4-2.27-1.4-3.4 0-1.42-.1-2.73-.27-4.14-.12-1.05-.02-2.12.75-2.9.14-.15.86-.34.8-.34.36-.07.68-.08 1.08-.1 1.54-.06 4.6.23 4.01 2.49-.26 1 3.6.43 3.88-.64 1.21-4.6-7.28-3.72-9.68-3.08-2.21.59-4.65 1.85-4.78 4.4-.06 1.22.27 2.38.33 3.59.06 1.39-.2 2.77.28 4.12 1.09 2.98 5.52 1.57 7.78 1.74 3.85.29 2.7 5.47 2.75 7.88.03 1.3 1.18 3.43.21 4.51-.6.66-1.98.7-2.8.77-.8.07-2.2.31-2.73-.46-1-1.42.09-3.8-.12-5.43-.13-.92-4.07-.1-3.92 1.05.34 2.63-1.4 6.15 2.4 6.6 2.44.29 5.2-.16 7.5-.93 1.2-.4 2.3-.94 3.24-1.8 1.04-.93.7-2.34.42-3.54-.68-2.92.73-6.28-1.17-8.85zM61.16 18.66c-.13-3.78-.7-7.51-.71-11.3 0-1.97-3.96-1.3-3.96.35.02 3.6.5 7.16.68 10.76l.02.22c-1.95-.02-3.9.18-5.86.25.2-4.63-.6-9.23-.43-13.86.02-.58-3.88-.09-3.92 1.05-.17 4.48.59 8.92.45 13.4-.06 2.13-.24 4.26-.25 6.4-.01 1.09.17 2.18.32 3.26.15 1 .49 2.33.19 3.32-.24.77 3.56.29 3.86-.7.54-1.78-.22-4.04-.4-5.84-.18-1.72-.05-3.5.08-5.25 2.03-.13 4.06-.3 6.08 0 .09 1.37.2 2.75.32 4.13.1 1.15.18 2.31.2 3.47.01 1.02.14 2.5-.23 3.46-.77 2.06 3.15 1.9 3.73.37.7-1.87.5-4.2.38-6.17-.15-2.44-.48-4.87-.55-7.32zM78.09 23.14c-.94-2.76-2.38-5.18-3.62-7.8 1-1.95 2.02-3.9 2.93-5.89.83-1.8 1.45-3.82 3.08-5.1.58-.44.55-.89-.25-.94-.88-.06-2.07.19-2.77.74a10.74 10.74 0 00-3.2 4.27 160.3 160.3 0 01-2.92 6.07l-.22.45c-.5.31-.79.76-.64 1.26-.8 1.56-1.6 3.12-2.5 4.61-.3-5.53-.95-11.06-1.15-16.6-.04-1.27-3.97-.48-3.92 1.05.25 6.87 1.22 13.72 1.29 20.59l-.05.05c-.3.3-.19.5.05.6 0 1.75-.05 3.5-.2 5.25-.48.75.46 1.14 1.08 1.14h.1c.73 0 2.62-.35 2.71-1.36.2-2.1.25-4.2.24-6.3a31.33 31.33 0 004.05-5.63 29.45 29.45 0 011.99 4.59c.86 2.74 2.3 5.26 3.13 8.01.54 1.8 4.46.74 3.92-1.05-.83-2.75-2.2-5.3-3.13-8.01zM101.59 18.5c-.21-.83-1.37-.85-2.27-.77l-.04-1c-.12-2.67-.16-5.38-.39-8.04-.2-2.45-1.58-3.33-3.97-3.24-2.42.09-5.23.52-7.48 1.4-2.61 1.01-4.06 2.93-4.56 5.68-.55 3.01.24 6.22.37 9.25.16 3.5.07 7.01.06 10.52 0 .57 3.92.03 3.92-1.05 0-2.78.04-5.55 0-8.33a52.2 52.2 0 00-.1-2.44c1.37-.6 3.69 0 5.05.14 1.1.1 2.17-.17 3.24-.3.02 2.32.1 4.64.2 6.95.05 1.18.48 3.53-.35 4.5-.44.53 1.48.35 1.56.34.79-.15 1.76-.4 2.3-1.04.95-1.12.45-3.8.4-5.13-.08-1.9-.1-3.82-.14-5.74 1.15-.14 2.42-.85 2.2-1.7zm-14.62-.15c-.1-1.24-.22-2.49-.3-3.74-.16-2.33.12-5.59 2.29-7 .58-.38 1.67-.32 2.35-.44.97-.18 1.96-.39 2.83.2 1.21.8.91 3.65.91 4.86 0 2 .21 4 .31 6-.55.06-1.1.1-1.68.08-2.29-.05-4.54-.41-6.7.04zM24.1 6.7a3.16 3.16 0 001.48-.52l.26-.22c.52-.34.97-.83.73-1.36-.5-1.1-.42-2.23-.42-3.41 0-.96-.96-1.25-1.78-1.18-.72.06-2.17.58-2.17 1.52 0 1-.07 2.02.1 3-.04.1-.07.23-.1.35a.7.7 0 00.14.59v.13l.02.34c.07.23.22.4.43.53.39.23.88.27 1.32.23z"/>
</symbol><symbol id="icon-loupe" viewBox="-0.8 -0.8 17.6 17.6">
  <path d="M16.47 14.93l-3.415-3.415A7.67 7.67 0 0014.6 6.899C14.6 2.646 11.153-.8 6.9-.8S-.8 2.646-.8 6.899s3.446 7.7 7.699 7.7c1.734 0 3.326-.58 4.613-1.546l3.417 3.416c.203.202.418.33.771.33a1.1 1.1 0 001.1-1.1c0-.24-.061-.499-.33-.769zM1.399 6.899a5.5 5.5 0 1111 0c0 3.038-2.462 5.5-5.5 5.5s-5.5-2.461-5.5-5.5z"/>
</symbol><symbol id="icon-mail" viewBox="0 0 32 32">
  <path d="M28 5H4a4 4 0 00-4 4v13a4 4 0 004 4h24a4 4 0 004-4V9a4 4 0 00-4-4zM2 10.25l7 5.25-7 5.25v-10.5zM30 22a2 2 0 01-2 2H4a2 2 0 01-2-2l7.83-5.88 4.37 3.28a3.01 3.01 0 003.6 0l4.37-3.27L30 22zm0-1.25l-7-5.25 7-5.25v10.5zM17.2 18.6a1.98 1.98 0 01-2.4 0l-4.14-3.1-.83-.63L2 9c0-1.1.9-2 2-2h24a2 2 0 012 2l-12.8 9.6z"/>
</symbol><symbol id="icon-map-pin" viewBox="0 0 66 100.801">
  <path fill="#FFFFFF" d="M56.334,9.228c-12.892-12.305-33.773-12.305-46.667,0c-12.891,12.297-12.891,32.248,0,44.542 c0,0,23.318,21.832,23.318,47.031c0-25.199,23.343-47.031,23.343-47.031C69.225,41.476,69.225,21.525,56.334,9.228z"/>
  <path fill="#6BC6B3" d="M47.036,45.522c-0.636-3.277,0.13-6.947,0.027-10.284c-0.115-3.755-0.713-7.485-0.665-11.246 c0.039-3.044,0.545-6.173-0.503-9.091c0.065-0.332,0.134-0.662,0.195-0.995c0.271-1.463-4.577-0.689-5.338,0.649 c-0.479,0.393-0.726,0.861-0.523,1.339c0.051,0.121,0.097,0.243,0.142,0.365c-0.917,4.485-2.197,8.827-3.668,13.174 c-0.563,1.663-1.244,3.288-1.817,4.946c-0.814-1.545-1.638-3.071-2.3-4.728c-1.922-4.805-3.656-9.661-6-14.285 c0.266-2.14-4.484-1.916-5.421,0.044c-1.132,2.371-0.986,4.763-0.613,7.299c0.42,2.858,0.494,5.668,0.528,8.554 c0.066,5.566,0.502,11.119,0.584,16.684c-0.496,0.552-0.646,1.233-0.127,1.924c0.226,0.302,0.505,0.535,0.799,0.769 c1.265,1.013,4.899,0.15,4.893-1.779c-0.02-5.771-0.437-11.531-0.589-17.299c-0.015-0.565-0.025-1.129-0.034-1.694 c0.08,0.203,0.159,0.406,0.24,0.607c0.896,2.245,1.833,4.427,3.059,6.514c1.214,2.068,1.824,4.289,2.523,6.547 c-0.265,0.303-0.423,0.647-0.326,0.991c-0.055,0.251,0.099,0.409,0.352,0.504c0.894,0.766,2.578,0.383,3.513-0.01 c0.4-0.168,0.785-0.364,1.155-0.593c0.483-0.297,1.236-0.95,1.021-1.622c-0.041-0.13-0.081-0.26-0.121-0.391 c0.657-1.776,0.992-3.625,1.352-5.5c0.381-2,1.095-3.892,1.812-5.786c0.073,0.867,0.149,1.732,0.219,2.597 c0.285,3.575,0.046,7.099,0.011,10.674c-0.013,1.186,0.074,2.287,0.306,3.445c0.096,0.479,0.514,2.53,0.394,2.642 c-0.855,0.79-0.606,1.759,0.539,2.011c1.279,0.281,2.912-0.148,3.877-1.039C48.207,49.911,47.414,47.479,47.036,45.522z"/>
</symbol><symbol id="icon-menu-close">
  <path fill="#231F20" d="M20.51 1.41L19.1 0l-8.84 8.84L1.4 0 0 1.41l8.84 8.85L0 19.1l1.41 1.41 8.85-8.84 8.84 8.84 1.41-1.41-8.84-8.84z"/>
</symbol><symbol id="icon-menu-open">
  <path fill="#231F20" d="M0 0h19.96v2H0zM0 6h19.96v2H0zM0 12h19.96v2H0z"/>
</symbol><symbol id="icon-phone" viewBox="0 0 24.83 24.33">
  <path d="M17.32 24.33h-1.11c-4.9-.58-8.5-2.85-11.11-5.77A19.4 19.4 0 010 6.82V5.46c.1-.92.54-1.55 1.07-2.09.65-.66 1.63-1.52 2.52-1.55a3.2 3.2 0 012.23 1.07c.39.53.6 1.59.78 2.37.18.8.6 1.95.48 2.72-.17 1.2-1.76 1.7-2.23 2.57a16.65 16.65 0 007.47 8.35c.85-.47 1.6-1.87 2.77-1.9.43 0 .97.22 1.4.35.48.14.9.32 1.32.48.7.27 1.95.62 2.37 1.21.44.61.68 1.61.58 2.23-.19 1.24-2.22 2.6-3.44 3.06zM12.53 1.53c5.95 0 10.77 4.82 10.77 10.77h1.53c0-6.8-5.5-12.3-12.3-12.3v1.53z"/>
  <path d="M12.53 9.33v1.55c.78 0 1.42.63 1.42 1.42h1.55a2.97 2.97 0 00-2.97-2.97zM12.53 6.25a6.05 6.05 0 016.06 6.05h1.58a7.64 7.64 0 00-7.64-7.64v1.59z"/>
</symbol><symbol id="icon-play" viewBox="247.3 382.56 100.678 76.891">
  <g>
    <g>
      <path fill="#63D1BB" d="M344.255,400.708c0,0-0.92-7.008-3.785-10.078c-3.632-4.041-7.674-4.066-9.541-4.297 c-13.326-1.023-33.303-1.023-33.303-1.023h-0.051c0,0-19.978,0-33.304,1.023c-1.867,0.23-5.908,0.256-9.54,4.297 c-2.84,3.096-3.786,10.078-3.786,10.078s-0.896,8.211-0.896,16.422v7.699c0,8.21,0.947,16.421,0.947,16.421 s0.921,7.009,3.785,10.078c3.632,4.041,8.364,3.913,10.487,4.349c7.622,0.767,32.356,1.022,32.356,1.022 s20.003-0.025,33.329-1.048c1.867-0.23,5.908-0.256,9.54-4.298c2.84-3.069,3.786-10.078,3.786-10.078s0.946-8.21,0.946-16.421 v-7.699C345.202,408.919,344.255,400.708,344.255,400.708z"/>
      <path fill="#FFFFFF" d="M297.614,459.449h-0.016c-1.015-0.011-24.946-0.266-32.604-1.037l-0.14-0.014l-0.137-0.028 c-0.271-0.056-0.668-0.107-1.126-0.167c-2.503-0.328-7.159-0.938-10.839-5.019c-3.354-3.616-4.377-10.771-4.483-11.576 l-0.005-0.043c-0.039-0.342-0.965-8.463-0.965-16.736v-7.699c0-8.266,0.875-16.378,0.912-16.72l0.009-0.071 c0.108-0.802,1.155-7.928,4.474-11.557c3.996-4.439,8.531-4.899,10.712-5.121c0.192-0.02,0.37-0.037,0.529-0.058l0.126-0.013 c13.277-1.019,33.312-1.031,33.514-1.031h0.051c0.201,0,20.236,0.013,33.514,1.031l0.126,0.013 c0.159,0.021,0.337,0.038,0.529,0.058c2.179,0.221,6.71,0.682,10.704,5.112c3.354,3.616,4.377,10.771,4.483,11.577l0.005,0.043 c0.039,0.342,0.965,8.459,0.99,16.753v7.708c0,8.273-0.926,16.395-0.965,16.736l-0.007,0.053 c-0.108,0.805-1.156,7.953-4.478,11.562c-3.994,4.435-8.527,4.896-10.707,5.117c-0.193,0.02-0.371,0.037-0.53,0.057l-0.126,0.013 c-13.276,1.02-33.334,1.057-33.535,1.058L297.614,459.449L297.614,459.449z M265.67,452.952 c7.477,0.729,31.216,0.989,31.968,0.997c0.657-0.001,20.135-0.049,33.047-1.036c0.178-0.021,0.371-0.041,0.58-0.062 c1.836-0.186,4.608-0.468,7.186-3.335l0.026-0.029c1.825-1.974,2.853-6.928,3.075-8.552c0.059-0.514,0.926-8.358,0.926-16.08 v-7.699c-0.023-7.76-0.896-15.627-0.951-16.109c-0.32-2.382-1.434-6.789-3.066-8.539l-0.035-0.038 c-2.577-2.868-5.351-3.149-7.186-3.336c-0.209-0.021-0.402-0.041-0.58-0.062c-13.066-0.998-32.834-1.011-33.033-1.011h-0.051 c-0.198,0-19.967,0.013-33.033,1.011c-0.177,0.021-0.371,0.041-0.58,0.062c-1.835,0.187-4.607,0.468-7.186,3.336l-0.019,0.021 c-1.828,1.993-2.855,6.924-3.082,8.552c-0.062,0.591-0.875,8.399-0.875,16.089v7.699c0,7.749,0.871,15.598,0.926,16.083 c0.32,2.381,1.433,6.789,3.066,8.539l0.035,0.039c2.322,2.584,5.303,2.975,7.479,3.259 C264.788,452.812,265.246,452.872,265.67,452.952z"/>
    </g>
  </g>
  <g>
    <polygon fill="#FFFFFF" points="285.733,403.138 285.733,438.846 315.48,420.992 	"/>
  </g>
</symbol><symbol id="icon-right-arrow" viewBox="0 0 50 26.003">
  <polygon points="0,11.002 42.341,11.002 34.166,2.828 36.995,0 50,12.998 49.996,13.001 50,13.005 36.995,26.003 34.166,23.175 42.339,15.002 0,15.002 "/>
</symbol><symbol id="icon-tick-big" viewBox="0 0 32.666 22.742">
  <polygon points="32.666,1.414 31.252,0 11.338,19.914 1.414,9.989 0,11.403 9.924,21.328 9.924,21.328 11.338,22.742 11.338,22.742 11.339,22.742 12.753,21.328 12.752,21.328 "/>
</symbol><symbol id="icon-tick" viewBox="0 0 32.666 22.742">
  <polygon points="32.666,1.414 31.252,0 11.338,19.914 1.414,9.989 0,11.403 9.924,21.328 9.924,21.328 11.338,22.742 11.338,22.742 11.339,22.742 12.753,21.328 12.752,21.328 "/>
</symbol><symbol id="icon-toy" viewBox="226 226.19 60 59.62">
  <path fill="#149080" d="M226 269.87l27.44 15.93v-23.34L226 246.52v23.35zm51.35-31.24v2.45c0 1.82-3.46 3.29-7.73 3.29-4.27 0-7.73-1.47-7.73-3.29v-4.06h.02c.26 1.72 3.6 3.07 7.7 3.07 4.28 0 7.73-1.47 7.73-3.28 0-1.82-3.45-3.29-7.72-3.29-.34 0-.68.01-1 .03l-4.98-2.89v3.09c0 1.82-3.46 3.29-7.72 3.29-2.69 0-5.05-.58-6.44-1.47-.2-.2-.44-.4-.73-.58a1.8 1.8 0 01-.56-1.24v-2.99l-4.81 2.8c-.35-.02-.7-.04-1.06-.04-4.26 0-7.72 1.47-7.72 3.3 0 1.8 3.46 3.28 7.72 3.28 4.1 0 7.45-1.36 7.71-3.08h.02v4.06c0 1.82-3.45 3.3-7.73 3.3-4.26 0-7.72-1.48-7.72-3.3v-2.42l-5.95 3.45 27.53 15.99 27.35-15.88-6.18-3.6zm-13.65 10.16c0 1.82-3.46 3.29-7.72 3.29-4.27 0-7.73-1.47-7.73-3.29v-4.06h.02c.26 1.72 3.6 3.08 7.7 3.08s7.45-1.36 7.71-3.08h.02v4.06zm-5.14 13.88v23.14L286 269.87v-23.14l-27.44 15.94zm-2.64-29.9c4.27 0 7.72-1.48 7.72-3.3 0-1.8-3.45-3.28-7.72-3.28s-7.73 1.47-7.73 3.29c0 1.81 3.46 3.28 7.73 3.28"/>
</symbol><symbol id="icon-tw" viewBox="52.3 53.8 23.5 20.2">
  <path d="M75.7 57.9c-.2-.4-.9-.3-1.4-.4h-1.1l.5-1c0-.4.3-.7.2-1.2l.3-.6c.1-.2.3-.5.1-.7 0-.2-.3-.2-.6-.2l-.2.1-1.3 1.4-.1.1-.4.2c-.3.2-.5.5-.9.6a6 6 0 00-1.8-.4c-1.2 0-2.3.2-3 .7-1 .4-1.6 1-2.2 1.7 0 .3-.4.3-.4.7l-.1.6c0 .1.2.4 0 .5-.9-.1-1.5-.6-2.2-1-.7-.3-1.5-.6-2-1a6 6 0 01-1.8-1.4c-.2-.3-.6-.5-.7-.9-.4-.2-.2-1-.7-.9-.4 0-.4.2-.5.4 0 .2-.4.2-.4.5-.2 1.2-.6 2-.6 3.3l.6 1c-.4.1-.7.3-.9.6 0 1 .4 1.6.8 2.3.1.4.3.7.6 1 0 .2.2.2.3.4l.1.2c0 .1.3.2.1.2-.4.2-1 .1-1.3.4a2 2 0 000 1.1c0 .3.3.3.3.5.5.5 1.1.8 1.7 1.2l1.8.3c0 .4-.3.6-.6.8-.8.4-1.8.4-2.7.7l-1.6.2c-.3.2-.8.1-1 .3-.2 0-.2 0-.3.2-.1.4.1.7.4.9 0 .2.3.2.4.3l.5.4c.5.5 1.2.8 1.9 1.1l2.5.5c.9.2 1.9.2 2.8.3h3.4c.5-.3 1.1-.4 1.6-.8.6-.2 1-.6 1.5-.9 1-.7 2-1.3 2.6-2.3l.4-.8c.3-.1.4-.4.6-.6l1-1.4 1-1.6.2-.9c.2-.2.2-.7.4-.9v-.6c.1-1.2 0-2.4-.2-3.4.6-.1 1.1-.3 1.6-.6.5-.2 1-.6.8-1.2zm-3.4 4c-.2.9-.6 1.4-1 2l-.1 1c-.2.2-.3.6-.4 1l-.5.8-1.2 1.6-1.3 1.5-1.4 1.3a5 5 0 00-1.3.7 5 5 0 00-.7.3c-.1.1-.5.1-.6.3l-3.6.1-3-.3c-1-.2-1.5-.8-2.3-1 .1-.3.6-.2 1-.3 0-.2.3 0 .4-.2h.5c.6-.2 1.2-.3 1.7-.6.3-.2.4-.5.7-.6 0-.2 0-.4.2-.5l.2-.8c0-.2.3-.3.2-.6 0-.2 0-.4-.2-.4 0-.2-.4 0-.5-.2l-.6-.1H58c-.8-.1-1.3-.5-1.9-.8.5-.3 1-.4 1.4-.8.5 0 1 0 1-.6 0-.7-.7-.7-1.2-.8-.8-.7-1.2-1.7-1.8-2.6l.7-.4c.5 0 .6-.3.7-.5 0-.5-.3-.6-.6-.8l-.7-.8.1-2.4v.1l.9 1.2c.5.4 1 .9 1.5 1.1.5.4 1.2.6 1.6 1l1.7 1c.7.1 1 .6 2 .5l.6-.3c.3-.4 0-1 .1-1.6.3-.6.8-1 1.3-1.5l.8-.5c.4 0 .7-.2 1-.4l1-.1h1.3l.7.1c.2.2.4.4.7.4.8.7 1.3 1.7 1.4 3V62zm.3-5.6c-.1.3-.2.7-.6.8l-.1-.2c0-.2.2-.2.2-.3.2 0 .3-.3.5-.3 0 0 .1 0 0 0zm-5.5 3l.5.4c.1.2.3.3.6.4 0-.2.4 0 .4-.2.2 0 .2-.3.3-.3 0-.6-.1-1-.4-1.4-.7-.4-1.7 0-1.4 1.1z"/>
</symbol><symbol id="icon-video" viewBox="0 0 32 32">
<g transform="translate(0 192)">
  <path d="M26-177l6-4v16l-6-4V-177z M24-177v8c0,2.209-1.791,4-4,4H4c-2.209,0-4-1.791-4-4v-8c0-2.209,1.791-4,4-4h10 c0-1.105,0.895-2,2-2v-2H5c-0.553,0-1-0.447-1-1s0.447-1,1-1h12c0.553,0,1,0.447,1,1v3c1.105,0,2,0.895,2,2 C22.209-181,24-179.209,24-177z M12-177H4v8h8V-177z M20-176c0-0.553-0.447-1-1-1h-4c-0.553,0-1,0.447-1,1s0.447,1,1,1h4 C19.553-175,20-175.447,20-176z"/>
</g>
</symbol></svg>