<svg>
    <symbol viewBox="-0.8 -0.8 17.6 17.6" id="icon-loupe">
      <path d="M16.47 14.93l-3.415-3.415A7.67 7.67 0 0014.6 6.899C14.6 2.646 11.153-.8 6.9-.8S-.8 2.646-.8 6.899s3.446 7.7 7.699 7.7c1.734 0 3.326-.58 4.613-1.546l3.417 3.416c.203.202.418.33.771.33a1.1 1.1 0 001.1-1.1c0-.24-.061-.499-.33-.769zM1.399 6.899a5.5 5.5 0 1111 0c0 3.038-2.462 5.5-5.5 5.5s-5.5-2.461-5.5-5.5z" />
    </symbol>

    <symbol viewBox="264.205 370.961 20.294 18.849" id="icon-basket">
      <path d="M283.75 378.19h-3.151l-3.407-6.814a.75.75 0 10-1.341.671l3.071 6.143h-9.138l3.072-6.143a.75.75 0 00-1.341-.671l-3.407 6.814h-3.151a.75.75 0 000 1.5h.157l.855 2.991a.737.737 0 00-.316.595c0 .396.309.71.697.739l1.656 5.795h12.697l1.656-5.795a.745.745 0 00.698-.739.738.738 0 00-.316-.596l.854-2.991h.157a.75.75 0 10-.002-1.499zm-4.181 10.121h-10.433l-1.224-4.284h12.881l-1.224 4.284zm1.653-5.785h-13.739l-.81-2.836h15.359l-.81 2.836z" />
    </symbol>

    <symbol viewBox="-259.4 -19.68 40.22 62.41" id="icon-interior">
      <path d="M-244.23 18.28c-.28.97-.24 2.2.03 3.64.5 2.64 1.69 6.04 2.36 9.67h5.06c.7-3.64 1.95-7.05 2.47-9.68.29-1.45.33-2.66.04-3.62-.27-.9-.89-1.62-2.02-2.3h-6c-1.07.68-1.67 1.39-1.94 2.3zM-232.4 38.28h-13.8c-1.29 0-2.3.97-2.3 2.23v2.23H-230.1V40.5c0-1.26-1-2.23-2.3-2.23zM-225.26-17.45H-237a2.25 2.25 0 00-2.3-2.23c-1.29 0-2.3.99-2.3 2.23h-11.74l-6.07 25.52c.79-.46 1.58-1 2.63-1 1.36 0 2.24.83 2.92 1.38.68.56 1.16.85 1.45.85.3 0 .77-.28 1.45-.83.68-.55 1.56-1.36 2.92-1.36 1.34 0 2.23.8 2.91 1.35.69.55 1.17.84 1.46.84.14 0 .33-.07.58-.21.24-.14.53-.35.87-.63.5-.4 1.14-.96 1.99-1.22.28-.08.59-.13.93-.13 1.34 0 2.24.8 2.92 1.35.68.55 1.16.84 1.45.84.29 0 .76-.3 1.44-.85.69-.55 1.57-1.36 2.93-1.36 1.35 0 2.24.81 2.92 1.37.34.27.63.49.87.63s.43.21.57.21c.3 0 .77-.3 1.45-.85.68-.56 1.56-1.39 2.93-1.39 1.04 0 1.83.54 2.63 1l-6.08-25.5zM-235.88 33.82h-6.87a1.1 1.1 0 00-1.15 1.11c0 .64.5 1.12 1.15 1.12h6.9a1.1 1.1 0 001.15-1.11c0-.64-.49-1.12-1.15-1.12h-.03zM-239.3 9.34c-.14 0-.33.07-.57.2-.16.1-.37.27-.57.42v3.73h2.3V9.96c-.51-.38-.91-.62-1.16-.62z" />
    </symbol>

    <symbol viewBox="226 226.19 60 59.62" id="icon-toy">
      <path fill="#149080" d="M226 269.87l27.44 15.93v-23.34L226 246.52v23.35zm51.35-31.24v2.45c0 1.82-3.46 3.29-7.73 3.29-4.27 0-7.73-1.47-7.73-3.29v-4.06h.02c.26 1.72 3.6 3.07 7.7 3.07 4.28 0 7.73-1.47 7.73-3.28 0-1.82-3.45-3.29-7.72-3.29-.34 0-.68.01-1 .03l-4.98-2.89v3.09c0 1.82-3.46 3.29-7.72 3.29-2.69 0-5.05-.58-6.44-1.47-.2-.2-.44-.4-.73-.58a1.8 1.8 0 01-.56-1.24v-2.99l-4.81 2.8c-.35-.02-.7-.04-1.06-.04-4.26 0-7.72 1.47-7.72 3.3 0 1.8 3.46 3.28 7.72 3.28 4.1 0 7.45-1.36 7.71-3.08h.02v4.06c0 1.82-3.45 3.3-7.73 3.3-4.26 0-7.72-1.48-7.72-3.3v-2.42l-5.95 3.45 27.53 15.99 27.35-15.88-6.18-3.6zm-13.65 10.16c0 1.82-3.46 3.29-7.72 3.29-4.27 0-7.73-1.47-7.73-3.29v-4.06h.02c.26 1.72 3.6 3.08 7.7 3.08s7.45-1.36 7.71-3.08h.02v4.06zm-5.14 13.88v23.14L286 269.87v-23.14l-27.44 15.94zm-2.64-29.9c4.27 0 7.72-1.48 7.72-3.3 0-1.8-3.45-3.28-7.72-3.28s-7.73 1.47-7.73 3.29c0 1.81 3.46 3.28 7.73 3.28" />
    </symbol>

    <symbol></symbol>

    <symbol></symbol>

    <symbol></symbol>

    <symbol></symbol>

    <symbol></symbol>

    <symbol></symbol>

  </svg>
